<?xml version="1.0" encoding="UTF-8" standalone="no"?>
<svg
   width="40"
   height="40"
   viewBox="0 0 40 40"
   fill="none"
   version="1.1"
   id="svg505"
   sodipodi:docname="icon_question_minor_defect.svg"
   inkscape:version="1.2.1 (9c6d41e, 2022-07-14)"
   xmlns:inkscape="http://www.inkscape.org/namespaces/inkscape"
   xmlns:sodipodi="http://sodipodi.sourceforge.net/DTD/sodipodi-0.dtd"
   xmlns="http://www.w3.org/2000/svg"
   xmlns:svg="http://www.w3.org/2000/svg">
  <defs
     id="defs509" />
  <sodipodi:namedview
     id="namedview507"
     pagecolor="#ffffff"
     bordercolor="#000000"
     borderopacity="0.25"
     inkscape:showpageshadow="2"
     inkscape:pageopacity="0.0"
     inkscape:pagecheckerboard="0"
     inkscape:deskcolor="#d1d1d1"
     showgrid="false"
     inkscape:zoom="5.9"
     inkscape:cx="14.915254"
     inkscape:cy="20"
     inkscape:window-width="1309"
     inkscape:window-height="430"
     inkscape:window-x="0"
     inkscape:window-y="38"
     inkscape:window-maximized="0"
     inkscape:current-layer="svg505" />
  <mask
     id="mask0_2151_11785"
     style="mask-type:alpha"
     maskUnits="userSpaceOnUse"
     x="0"
     y="0"
     width="40"
     height="40">
    <rect
       width="40"
       height="40"
       fill="#D9D9D9"
       id="rect498" />
  </mask>
  <g
     mask="url(#mask0_2151_11785)"
     id="g503"
     style="fill:#ffffff">
    <path
       d="M20 28.3333C20.4722 28.3333 20.8681 28.1736 21.1875 27.8542C21.507 27.5347 21.6667 27.1389 21.6667 26.6667C21.6667 26.1944 21.507 25.7986 21.1875 25.4792C20.8681 25.1597 20.4722 25 20 25C19.5278 25 19.132 25.1597 18.8125 25.4792C18.4931 25.7986 18.3333 26.1944 18.3333 26.6667C18.3333 27.1389 18.4931 27.5347 18.8125 27.8542C19.132 28.1736 19.5278 28.3333 20 28.3333ZM18.3333 21.6667H21.6667V11.6667H18.3333V21.6667ZM20 36.6667C17.6945 36.6667 15.5278 36.2292 13.5 35.3542C11.4722 34.4792 9.70834 33.2917 8.20834 31.7917C6.70834 30.2917 5.52084 28.5278 4.64584 26.5C3.77084 24.4722 3.33334 22.3056 3.33334 20C3.33334 17.6944 3.77084 15.5278 4.64584 13.5C5.52084 11.4722 6.70834 9.70833 8.20834 8.20833C9.70834 6.70833 11.4722 5.52083 13.5 4.64583C15.5278 3.77083 17.6945 3.33333 20 3.33333C22.3056 3.33333 24.4722 3.77083 26.5 4.64583C28.5278 5.52083 30.2917 6.70833 31.7917 8.20833C33.2917 9.70833 34.4792 11.4722 35.3542 13.5C36.2292 15.5278 36.6667 17.6944 36.6667 20C36.6667 22.3056 36.2292 24.4722 35.3542 26.5C34.4792 28.5278 33.2917 30.2917 31.7917 31.7917C30.2917 33.2917 28.5278 34.4792 26.5 35.3542C24.4722 36.2292 22.3056 36.6667 20 36.6667ZM20 33.3333C23.7222 33.3333 26.875 32.0417 29.4583 29.4583C32.0417 26.875 33.3333 23.7222 33.3333 20C33.3333 16.2778 32.0417 13.125 29.4583 10.5417C26.875 7.95833 23.7222 6.66667 20 6.66667C16.2778 6.66667 13.125 7.95833 10.5417 10.5417C7.95834 13.125 6.66668 16.2778 6.66668 20C6.66668 23.7222 7.95834 26.875 10.5417 29.4583C13.125 32.0417 16.2778 33.3333 20 33.3333Z"
       fill="#165C96"
       id="path501"
       style="fill:#ffffff" />
  </g>
</svg>
