<?xml version="1.0" encoding="UTF-8" standalone="no"?>
<svg
   width="40"
   height="40"
   viewBox="0 0 40 40"
   fill="none"
   version="1.1"
   id="svg245"
   sodipodi:docname="icon_question_major_defect.svg"
   inkscape:version="1.2.1 (9c6d41e, 2022-07-14)"
   xmlns:inkscape="http://www.inkscape.org/namespaces/inkscape"
   xmlns:sodipodi="http://sodipodi.sourceforge.net/DTD/sodipodi-0.dtd"
   xmlns="http://www.w3.org/2000/svg"
   xmlns:svg="http://www.w3.org/2000/svg">
  <defs
     id="defs249" />
  <mask
     id="mask0_2151_11789"
     style="mask-type:alpha"
     maskUnits="userSpaceOnUse"
     x="0"
     y="0"
     width="40"
     height="40">
    <rect
       width="40"
       height="40"
       fill="#dd2725"
       id="rect238" />
  </mask>
  <g
     mask="url(#mask0_2151_11789)"
     id="g243">
    <path
       d="M14 28.3334L20 22.3334L26 28.3334L28.3333 26L22.3333 20L28.3333 14L26 11.6667L20 17.6667L14 11.6667L11.6667 14L17.6667 20L11.6667 26L14 28.3334ZM20 36.6667C17.6945 36.6667 15.5278 36.2292 13.5 35.3542C11.4722 34.4792 9.70834 33.2917 8.20834 31.7917C6.70834 30.2917 5.52084 28.5278 4.64584 26.5C3.77084 24.4722 3.33334 22.3056 3.33334 20C3.33334 17.6945 3.77084 15.5278 4.64584 13.5C5.52084 11.4722 6.70834 9.70836 8.20834 8.20836C9.70834 6.70836 11.4722 5.52086 13.5 4.64586C15.5278 3.77086 17.6945 3.33336 20 3.33336C22.3056 3.33336 24.4722 3.77086 26.5 4.64586C28.5278 5.52086 30.2917 6.70836 31.7917 8.20836C33.2917 9.70836 34.4792 11.4722 35.3542 13.5C36.2292 15.5278 36.6667 17.6945 36.6667 20C36.6667 22.3056 36.2292 24.4722 35.3542 26.5C34.4792 28.5278 33.2917 30.2917 31.7917 31.7917C30.2917 33.2917 28.5278 34.4792 26.5 35.3542C24.4722 36.2292 22.3056 36.6667 20 36.6667ZM20 33.3334C23.7222 33.3334 26.875 32.0417 29.4583 29.4584C32.0417 26.875 33.3333 23.7222 33.3333 20C33.3333 16.2778 32.0417 13.125 29.4583 10.5417C26.875 7.95836 23.7222 6.66669 20 6.66669C16.2778 6.66669 13.125 7.95836 10.5417 10.5417C7.95834 13.125 6.66668 16.2778 6.66668 20C6.66668 23.7222 7.95834 26.875 10.5417 29.4584C13.125 32.0417 16.2778 33.3334 20 33.3334Z"
       fill="#dd2725"
       id="path241"
       style="fill:#dd2725" />
  </g>
</svg>
