<?xml version="1.0" encoding="UTF-8" standalone="no"?>
<svg
   width="40"
   height="40"
   viewBox="0 0 40 40"
   fill="none"
   version="1.1"
   id="svg375"
   sodipodi:docname="icon_question_no_defect.svg"
   inkscape:version="1.2.1 (9c6d41e, 2022-07-14)"
   xmlns:inkscape="http://www.inkscape.org/namespaces/inkscape"
   xmlns:sodipodi="http://sodipodi.sourceforge.net/DTD/sodipodi-0.dtd"
   xmlns="http://www.w3.org/2000/svg"
   xmlns:svg="http://www.w3.org/2000/svg">
  <defs
     id="defs379" />
  <sodipodi:namedview
     id="namedview377"
     pagecolor="#ffffff"
     bordercolor="#000000"
     borderopacity="0.25"
     inkscape:showpageshadow="2"
     inkscape:pageopacity="0.0"
     inkscape:pagecheckerboard="0"
     inkscape:deskcolor="#d1d1d1"
     showgrid="false"
     inkscape:zoom="5.9"
     inkscape:cx="14.915254"
     inkscape:cy="20"
     inkscape:window-width="1309"
     inkscape:window-height="430"
     inkscape:window-x="0"
     inkscape:window-y="38"
     inkscape:window-maximized="0"
     inkscape:current-layer="svg375" />
  <mask
     id="mask0_2151_11790"
     style="mask-type:alpha"
     maskUnits="userSpaceOnUse"
     x="0"
     y="0"
     width="40"
     height="40">
    <rect
       width="40"
       height="40"
       fill="#165C96"
       id="rect368" />
  </mask>
  <g
     mask="url(#mask0_2151_11790)"
     id="g373"
     style="fill:#ffffff">
    <path
       d="M17.6666 27.6667L29.4166 15.9167L27.0833 13.5834L17.6666 23L12.9166 18.25L10.5833 20.5834L17.6666 27.6667ZM20 36.6667C17.6944 36.6667 15.5278 36.2292 13.5 35.3542C11.4722 34.4792 9.70831 33.2917 8.20831 31.7917C6.70831 30.2917 5.52081 28.5278 4.64581 26.5C3.77081 24.4722 3.33331 22.3056 3.33331 20C3.33331 17.6945 3.77081 15.5278 4.64581 13.5C5.52081 11.4722 6.70831 9.70836 8.20831 8.20836C9.70831 6.70836 11.4722 5.52086 13.5 4.64586C15.5278 3.77086 17.6944 3.33336 20 3.33336C22.3055 3.33336 24.4722 3.77086 26.5 4.64586C28.5278 5.52086 30.2916 6.70836 31.7916 8.20836C33.2916 9.70836 34.4791 11.4722 35.3541 13.5C36.2291 15.5278 36.6666 17.6945 36.6666 20C36.6666 22.3056 36.2291 24.4722 35.3541 26.5C34.4791 28.5278 33.2916 30.2917 31.7916 31.7917C30.2916 33.2917 28.5278 34.4792 26.5 35.3542C24.4722 36.2292 22.3055 36.6667 20 36.6667ZM20 33.3334C23.7222 33.3334 26.875 32.0417 29.4583 29.4584C32.0416 26.875 33.3333 23.7222 33.3333 20C33.3333 16.2778 32.0416 13.125 29.4583 10.5417C26.875 7.95836 23.7222 6.66669 20 6.66669C16.2778 6.66669 13.125 7.95836 10.5416 10.5417C7.95831 13.125 6.66665 16.2778 6.66665 20C6.66665 23.7222 7.95831 26.875 10.5416 29.4584C13.125 32.0417 16.2778 33.3334 20 33.3334Z"
       fill="#165C96"
       id="path371"
       style="fill:#ffffff" />
  </g>
</svg>
