<svg width="380" height="174" viewBox="0 0 380 174" fill="none" xmlns="http://www.w3.org/2000/svg">
<g clip-path="url(#clip0_766_6056)">
<path d="M366.021 94.418H119.34C115.868 94.4211 112.539 95.7995 110.083 98.2507C107.628 100.702 106.247 104.025 106.244 107.492V147.401C106.247 150.867 107.628 154.191 110.083 156.642C112.539 159.093 115.868 160.472 119.34 160.475H366.021C369.493 160.472 372.823 159.093 375.278 156.642C377.733 154.191 379.114 150.867 379.117 147.401V107.492C379.114 104.025 377.733 100.702 375.278 98.2507C372.823 95.7995 369.493 94.4211 366.021 94.418Z" fill="#E2E8F0"/>
<path d="M366.253 0H119.572C116.1 0.00313996 112.77 1.38157 110.315 3.83269C107.86 6.28381 106.479 9.60734 106.476 13.0737V52.9831C106.479 56.4495 107.86 59.773 110.315 62.2241C112.77 64.6753 116.1 66.0537 119.572 66.0568H366.253C369.725 66.0537 373.054 64.6753 375.51 62.2241C377.965 59.773 379.346 56.4495 379.349 52.9831V13.0737C379.346 9.60734 377.965 6.2838 375.51 3.83268C373.054 1.38156 369.725 0.00313996 366.253 0ZM377.97 52.9831C377.966 56.0841 376.73 59.0569 374.534 61.2497C372.337 63.4424 369.359 64.6762 366.253 64.6806H119.572C116.466 64.6762 113.488 63.4424 111.291 61.2497C109.095 59.0569 107.859 56.0841 107.854 52.9831V13.0737C107.859 9.97271 109.095 6.99994 111.291 4.80717C113.488 2.6144 116.466 1.38057 119.572 1.37618H366.253C369.359 1.38057 372.337 2.6144 374.534 4.80717C376.73 6.99994 377.966 9.97271 377.97 13.0737V52.9831Z" fill="#475569"/>
<path d="M169.772 55.7834C165.264 55.7835 160.857 54.4489 157.108 51.9486C153.36 49.4483 150.438 45.8945 148.713 41.7365C146.988 37.5786 146.536 33.0033 147.416 28.5893C148.295 24.1752 150.466 20.1206 153.654 16.9383C156.842 13.7559 160.903 11.5887 165.325 10.7107C169.746 9.83267 174.329 10.2833 178.494 12.0056C182.66 13.7278 186.219 16.6444 188.724 20.3864C191.229 24.1285 192.566 28.5279 192.566 33.0284C192.559 39.0613 190.155 44.8451 185.882 49.111C181.609 53.3769 175.815 55.7765 169.772 55.7834Z" fill="#165C96"/>
<path d="M332.595 51.6071H214.118C212.656 51.6071 211.253 51.0272 210.219 49.9948C209.185 48.9625 208.604 47.5623 208.604 46.1024C208.604 44.6424 209.185 43.2423 210.219 42.21C211.253 41.1776 212.656 40.5977 214.118 40.5977H332.595C334.058 40.5977 335.46 41.1776 336.494 42.21C337.529 43.2423 338.11 44.6424 338.11 46.1024C338.11 47.5623 337.529 48.9625 336.494 49.9948C335.46 51.0272 334.058 51.6071 332.595 51.6071Z" fill="#CBD5E1"/>
<path d="M253.33 28.2116H214.118C212.656 28.2116 211.253 27.6317 210.219 26.5993C209.185 25.567 208.604 24.1668 208.604 22.7069C208.604 21.2469 209.185 19.8468 210.219 18.8145C211.253 17.7821 212.656 17.2021 214.118 17.2021H253.33C254.792 17.2021 256.194 17.7821 257.229 18.8145C258.263 19.8468 258.844 21.2469 258.844 22.7069C258.844 24.1668 258.263 25.567 257.229 26.5993C256.194 27.6317 254.792 28.2116 253.33 28.2116Z" fill="#CBD5E1"/>
<path d="M168.608 41.0326C168.042 41.0336 167.492 40.851 167.039 40.5123L167.011 40.4913L161.103 35.9796C160.829 35.7704 160.599 35.5093 160.426 35.2112C160.253 34.9131 160.14 34.5839 160.095 34.2424C160.049 33.9008 160.072 33.5537 160.161 33.2208C160.25 32.888 160.404 32.5759 160.614 32.3024C160.824 32.029 161.086 31.7996 161.384 31.6273C161.683 31.455 162.013 31.3433 162.355 31.2984C162.698 31.2536 163.045 31.2765 163.379 31.366C163.712 31.4554 164.024 31.6096 164.298 31.8196L168.125 34.7491L177.167 22.9722C177.377 22.6991 177.638 22.47 177.937 22.2979C178.235 22.1257 178.564 22.0139 178.906 21.9688C179.248 21.9238 179.595 21.9464 179.928 22.0353C180.261 22.1242 180.573 22.2777 180.846 22.487L180.847 22.4876L180.791 22.5654L180.849 22.4876C181.401 22.9109 181.762 23.5355 181.853 24.2243C181.944 24.9131 181.757 25.6097 181.334 26.1614L170.698 40.0075C170.452 40.3265 170.136 40.5846 169.774 40.7619C169.411 40.9391 169.013 41.0307 168.61 41.0296L168.608 41.0326Z" fill="white"/>
<path d="M260.261 107.378H13.5802C10.1079 107.381 6.77866 108.759 4.32335 111.211C1.86804 113.662 0.487276 116.985 0.484131 120.452V160.361C0.487276 163.827 1.86804 167.151 4.32335 169.602C6.77867 172.053 10.1079 173.432 13.5802 173.435H260.261C263.733 173.432 267.063 172.053 269.518 169.602C271.973 167.151 273.354 163.827 273.357 160.361V120.452C273.354 116.985 271.973 113.662 269.518 111.211C267.063 108.759 263.733 107.381 260.261 107.378Z" fill="white"/>
<path d="M260.261 107.378H13.5802C10.1079 107.381 6.77866 108.759 4.32335 111.211C1.86804 113.662 0.487276 116.985 0.484131 120.452V160.361C0.487276 163.827 1.86804 167.151 4.32335 169.602C6.77867 172.053 10.1079 173.432 13.5802 173.435H260.261C263.733 173.432 267.063 172.053 269.518 169.602C271.973 167.151 273.354 163.827 273.357 160.361V120.452C273.354 116.985 271.973 113.662 269.518 111.211C267.063 108.759 263.733 107.381 260.261 107.378ZM271.979 160.361C271.974 163.462 270.738 166.435 268.542 168.628C266.345 170.82 263.367 172.054 260.261 172.059H13.5802C10.4739 172.054 7.49603 170.82 5.29951 168.628C3.10299 166.435 1.86703 163.462 1.86263 160.361V120.452C1.86702 117.351 3.10297 114.378 5.29948 112.185C7.496 109.992 10.4739 108.759 13.5802 108.754H260.261C263.367 108.759 266.345 109.992 268.542 112.185C270.738 114.378 271.974 117.351 271.979 120.452V160.361Z" fill="#475569"/>
<path d="M63.7802 163.161C59.272 163.161 54.865 161.827 51.1165 159.327C47.3681 156.826 44.4465 153.272 42.7212 149.114C40.996 144.957 40.5446 140.381 41.4241 135.967C42.3035 131.553 44.4744 127.499 47.6622 124.316C50.85 121.134 54.9115 118.967 59.3331 118.089C63.7547 117.211 68.3378 117.661 72.5028 119.383C76.6679 121.106 80.2278 124.022 82.7324 127.764C85.2371 131.506 86.5739 135.906 86.5739 140.406C86.567 146.439 84.1634 152.223 79.8902 156.489C75.6171 160.755 69.8234 163.154 63.7802 163.161Z" fill="#165C96"/>
<path d="M226.604 158.985H108.127C106.664 158.985 105.262 158.405 104.228 157.373C103.193 156.34 102.613 154.94 102.613 153.48C102.613 152.02 103.193 150.62 104.228 149.588C105.262 148.556 106.664 147.976 108.127 147.976H226.604C228.066 147.976 229.469 148.556 230.503 149.588C231.537 150.62 232.118 152.02 232.118 153.48C232.118 154.94 231.537 156.34 230.503 157.373C229.469 158.405 228.066 158.985 226.604 158.985Z" fill="#CBD5E1"/>
<path d="M147.338 135.591H108.127C107.403 135.591 106.686 135.448 106.017 135.172C105.348 134.895 104.74 134.489 104.228 133.978C103.716 133.467 103.309 132.86 103.032 132.192C102.755 131.525 102.613 130.809 102.613 130.086C102.613 129.363 102.755 128.647 103.032 127.979C103.309 127.311 103.716 126.705 104.228 126.193C104.74 125.682 105.348 125.277 106.017 125C106.686 124.723 107.403 124.581 108.127 124.581H147.338C148.8 124.581 150.203 125.161 151.237 126.193C152.271 127.226 152.852 128.626 152.852 130.086C152.852 131.546 152.271 132.946 151.237 133.978C150.203 135.011 148.8 135.591 147.338 135.591Z" fill="#CBD5E1"/>
<path d="M62.6159 148.411C62.0504 148.412 61.4999 148.229 61.0474 147.89L61.0193 147.869L55.1115 143.358C54.8372 143.148 54.607 142.887 54.4339 142.589C54.2609 142.291 54.1484 141.962 54.103 141.62C54.0575 141.279 54.0799 140.932 54.169 140.599C54.258 140.266 54.4119 139.954 54.6219 139.68C54.8319 139.407 55.0938 139.178 55.3927 139.005C55.6916 138.833 56.0216 138.721 56.3638 138.676C56.706 138.632 57.0537 138.654 57.387 138.744C57.7203 138.833 58.0326 138.987 58.3062 139.198L62.1328 142.127L71.1754 130.35C71.3851 130.077 71.6466 129.848 71.945 129.676C72.2433 129.504 72.5728 129.392 72.9144 129.347C73.2561 129.302 73.6033 129.324 73.9362 129.413C74.2692 129.502 74.5813 129.656 74.8548 129.865L74.8556 129.866L74.7994 129.943L74.8571 129.866C75.4089 130.289 75.7699 130.913 75.8609 131.602C75.9519 132.291 75.7655 132.988 75.3425 133.539L64.7065 147.385C64.4604 147.704 64.144 147.963 63.7819 148.14C63.4198 148.317 63.0216 148.409 62.6183 148.407L62.6159 148.411Z" fill="white"/>
</g>
<defs>
<clipPath id="clip0_766_6056">
<rect width="380" height="174" fill="white"/>
</clipPath>
</defs>
</svg>
